<svg viewBox="0 0 600 386" xmlns="http://www.w3.org/2000/svg" xml:space="preserve" style="fill-rule:evenodd;clip-rule:evenodd;stroke-linejoin:round;stroke-miterlimit:2"><path d="M10.1 190.2V27.7c0-8.9 8.3-17.3 16.8-17.3h524.7c10.7 0 18 8.5 18 17.3v162.4H10.1v.1Z" style="fill:#00468e;fill-rule:nonzero" transform="translate(-10.831 -11.153) scale(1.07239)"/><path d="M10.1 189.8v162.4c0 8.8 8.3 17.3 16.8 17.3h524.7c10.7 0 18-8.5 18-17.3V189.8H10.1Z" style="fill:#da251c;fill-rule:nonzero" transform="translate(-10.831 -11.153) scale(1.07239)"/><path style="fill:#fff" d="M134.8 29.3h40v141.8h-40zm363.8-.2h40v141.8h-40z" transform="translate(-10.831 -11.153) scale(1.07239)"/><path d="M41 208.9h34.9l37.6 53.8 36.9-53.8h35.1v141.9h-35.1v-90.4L117 305.3h-6.8L75.9 260v90.8H41V208.9Zm83.5-37.8H41V29.3h36v108.1h47.5v33.7ZM447 350.2h-87.1V208.5h39.6v108H447v33.7ZM354.5 29.1H394v88.5c0 15.6 10.5 25.1 26 25.1 16.1 0 25.8-9.5 25.8-24.8V29.2H485v104s-2.4 42-65.2 42c-62.8 0-65.4-42-65.4-42l.1-104.1Zm66.8 179.8 46 .1 24.4 42 23.5-42.1h46.1l-50.8 75.6-.2 66.3h-37.9v-66.3l-51.1-75.6ZM310 279.7c0 24.5-18.2 41.4-37.6 41.4-17.1 0-36.9-14.7-36.9-41.4s20-40.9 37-40.9c20-.1 37.5 16.3 37.5 40.9Zm-37-75.5c-35.9 0-79.3 26-79.3 75.2s43.1 76.2 79.2 76.2c36.6 0 79.2-26.7 79.4-76 .1-49.7-43.7-75.4-79.3-75.4Zm28.9-104.6c0 27-17.8 41.2-37.2 41.2-19 0-37.2-13.9-37.2-40.7 0-25.3 18-41.2 36.4-41.2 20 .1 38 16.2 38 40.7Zm-37.6-75.1c-35.9 0-78.2 26-78.2 75.2s41.9 76.1 78 76.1c41 0 79.4-30.9 79.4-76 0-43.2-35.9-75.3-79.2-75.3Z" style="fill:#fff;fill-rule:nonzero" transform="translate(-10.831 -11.153) scale(1.07239)"/><path d="m284.9 108-26.1 13.5 56.9 63.5 28.8-14.3-59.6-62.7Z" style="fill:#fff;fill-rule:nonzero" transform="translate(-10.831 -11.153) scale(1.07239)"/></svg>